# xmcd
#
# Track frame offsets: 
#        150
#        12788
#        27624
#        40283
#        55795
#        67249
#        78959
#        90978
#        101855
#        113461
#        124788
#        141434
#        153993
#        166801
#        180702
#        195682
#        207347
#        218111
#        229736
#        241274
#        252043
#        263762
#
# Disc length: 3688 seconds
#
# Revision: 0
# Processed by: cddbd v1.5.2PL0 Copyright (c) Steve Scherf et al.
# Submitted via: ExactAudioCopy v0.95b3
#
DISCID=2c0e6616
DTITLE=The Beatles  - Japan 1966 (Masterdisc) - Disc 2.
DYEAR=1900
DGENRE=
TTITLE0=Rock And Roll Music
TTITLE1=She's A Woman
TTITLE2=If I Needed Someone
TTITLE3=Day Tripper
TTITLE4=Baby's In Black
TTITLE5=I Feel Fine
TTITLE6=Yesterday
TTITLE7=I Wanna Be Your Man
TTITLE8=Nowhere Man
TTITLE9=Paperback Writer
TTITLE10=I'm Down
TTITLE11=Rock And Roll Music
TTITLE12=She's A Woman
TTITLE13=If I Needed Someone
TTITLE14=Day Tripper
TTITLE15=Baby's In Black
TTITLE16=I Feel Fine
TTITLE17=Yesterday
TTITLE18=I Wanna Be Your Man
TTITLE19=Nowhere Man
TTITLE20=Paperback Writer
TTITLE21=I'm Down
EXTD=
EXTT0=
EXTT1=
EXTT2=
EXTT3=
EXTT4=
EXTT5=
EXTT6=
EXTT7=
EXTT8=
EXTT9=
EXTT10=
EXTT11=
EXTT12=
EXTT13=
EXTT14=
EXTT15=
EXTT16=
EXTT17=
EXTT18=
EXTT19=
EXTT20=
EXTT21=
PLAYORDER=
